<?xml version="1.0" standalone="no"?>
<svg xmlns:xlink="http://www.w3.org/1999/xlink" id="mermaid-svg" width="undefined" xmlns="http://www.w3.org/2000/svg" height="undefined" style="max-width: 486.881591796875px;" viewBox="-5.987049102783203 0 486.881591796875 744"><style>#mermaid-svg{font-family:"trebuchet ms",verdana,arial,sans-serif;font-size:16px;fill:#333;}#mermaid-svg .error-icon{fill:#552222;}#mermaid-svg .error-text{fill:#552222;stroke:#552222;}#mermaid-svg .edge-thickness-normal{stroke-width:2px;}#mermaid-svg .edge-thickness-thick{stroke-width:3.5px;}#mermaid-svg .edge-pattern-solid{stroke-dasharray:0;}#mermaid-svg .edge-pattern-dashed{stroke-dasharray:3;}#mermaid-svg .edge-pattern-dotted{stroke-dasharray:2;}#mermaid-svg .marker{fill:#333333;}#mermaid-svg .marker.cross{stroke:#333333;}#mermaid-svg svg{font-family:"trebuchet ms",verdana,arial,sans-serif;font-size:16px;}#mermaid-svg .entityBox{fill:#ECECFF;stroke:#9370DB;}#mermaid-svg .attributeBoxOdd{fill:#ffffff;stroke:#9370DB;}#mermaid-svg .attributeBoxEven{fill:#f2f2f2;stroke:#9370DB;}#mermaid-svg .relationshipLabelBox{fill:hsl(80,100%,96.2745098039%);opacity:0.7;background-color:hsl(80,100%,96.2745098039%);}#mermaid-svg .relationshipLabelBox rect{opacity:0.5;}#mermaid-svg .relationshipLine{stroke:#333333;}#mermaid-svg:root{--mermaid-font-family:"trebuchet ms",verdana,arial,sans-serif;}#mermaid-svg er{fill:apa;}</style><g/><defs><marker id="ONLY_ONE_START" refX="0" refY="9" markerWidth="18" markerHeight="18" orient="auto"><path stroke="gray" fill="none" d="M9,0 L9,18 M15,0 L15,18"/></marker></defs><defs><marker id="ONLY_ONE_END" refX="18" refY="9" markerWidth="18" markerHeight="18" orient="auto"><path stroke="gray" fill="none" d="M3,0 L3,18 M9,0 L9,18"/></marker></defs><defs><marker id="ZERO_OR_ONE_START" refX="0" refY="9" markerWidth="30" markerHeight="18" orient="auto"><circle stroke="gray" fill="white" cx="21" cy="9" r="6"/><path stroke="gray" fill="none" d="M9,0 L9,18"/></marker></defs><defs><marker id="ZERO_OR_ONE_END" refX="30" refY="9" markerWidth="30" markerHeight="18" orient="auto"><circle stroke="gray" fill="white" cx="9" cy="9" r="6"/><path stroke="gray" fill="none" d="M21,0 L21,18"/></marker></defs><defs><marker id="ONE_OR_MORE_START" refX="18" refY="18" markerWidth="45" markerHeight="36" orient="auto"><path stroke="gray" fill="none" d="M0,18 Q 18,0 36,18 Q 18,36 0,18 M42,9 L42,27"/></marker></defs><defs><marker id="ONE_OR_MORE_END" refX="27" refY="18" markerWidth="45" markerHeight="36" orient="auto"><path stroke="gray" fill="none" d="M3,9 L3,27 M9,18 Q27,0 45,18 Q27,36 9,18"/></marker></defs><defs><marker id="ZERO_OR_MORE_START" refX="18" refY="18" markerWidth="57" markerHeight="36" orient="auto"><circle stroke="gray" fill="white" cx="48" cy="18" r="6"/><path stroke="gray" fill="none" d="M0,18 Q18,0 36,18 Q18,36 0,18"/></marker></defs><defs><marker id="ZERO_OR_MORE_END" refX="39" refY="18" markerWidth="57" markerHeight="36" orient="auto"><circle stroke="gray" fill="white" cx="9" cy="18" r="6"/><path stroke="gray" fill="none" d="M21,18 Q39,0 57,18 Q39,36 21,18"/></marker></defs><path class="er relationshipLine" d="M246.52734375,446L246.52734375,454.3333333333333C246.52734375,462.6666666666667,246.52734375,479.3333333333333,246.52734375,496C246.52734375,512.6666666666666,246.52734375,529.3333333333334,246.52734375,537.6666666666666L246.52734375,546" stroke="gray" fill="none" marker-end="url(#ONLY_ONE_END)" marker-start="url(#ZERO_OR_MORE_START)"/><path class="er relationshipLine" d="M57.89473684210526,234L51.57894736842105,246C45.26315789473684,258,32.63157894736842,282,26.31578947368421,309.8333333333333C20,337.6666666666667,20,369.3333333333333,20,401C20,432.6666666666667,20,464.3333333333333,49.01953125,497.97341254102645C78.0390625,531.6134917487196,136.078125,567.2269834974393,165.09765625,585.033729371799L194.1171875,602.8404752461589" stroke="gray" fill="none" marker-end="url(#ONLY_ONE_END)" marker-start="url(#ZERO_OR_MORE_START)"/><path class="er relationshipLine" d="M88.15789473684211,234L97.63157894736842,246C107.10526315789474,258,126.05263157894736,282,144.4322231359649,302.3333333333333C162.81181469298247,322.6666666666667,180.62362938596493,339.3333333333333,189.52953673245614,347.6666666666667L198.43544407894737,356" stroke="gray" fill="none" marker-end="url(#ONLY_ONE_END)" marker-start="url(#ZERO_OR_MORE_START)"/><path class="er relationshipLine" d="M296.52734375,256L296.52734375,264.3333333333333C296.52734375,272.6666666666667,296.52734375,289.3333333333333,292.1413788377193,306C287.75541392543863,322.6666666666667,278.9834841008772,339.3333333333333,274.5975191885965,347.6666666666667L270.2115542763158,356" stroke="gray" fill="none" marker-end="url(#ONLY_ONE_END)" marker-start="url(#ZERO_OR_MORE_START)"/><path class="er relationshipLine" d="M348.943332619863,66L340.20733447488584,74.33333333333333C331.47133632990864,82.66666666666667,313.99934003995435,99.33333333333333,305.26334189497715,116C296.52734375,132.66666666666666,296.52734375,149.33333333333334,296.52734375,157.66666666666666L296.52734375,166" stroke="gray" fill="none" marker-end="url(#ONLY_ONE_END)" marker-start="url(#ZERO_OR_MORE_START)"/><path class="er relationshipLine" d="M397.166042380137,66L405.90204052511416,74.33333333333333C414.63803867009136,82.66666666666667,432.11003496004565,99.33333333333333,440.8460331050228,123.5C449.58203125,147.66666666666666,449.58203125,179.33333333333334,449.58203125,211C449.58203125,242.66666666666666,449.58203125,274.3333333333333,449.58203125,306C449.58203125,337.6666666666667,449.58203125,369.3333333333333,449.58203125,401C449.58203125,432.6666666666667,449.58203125,464.3333333333333,424.474609375,497.353817988278C399.3671875,530.3743026432227,349.15234375,564.7486052864452,324.044921875,581.9357566080566L298.9375,599.1229079296679" stroke="gray" fill="none" marker-end="url(#ONLY_ONE_END)" marker-start="url(#ZERO_OR_MORE_START)"/><g id="user" transform="translate(194.1171875,546 )"><rect class="er entityBox" fill="honeydew" fill-opacity="100%" stroke="gray" x="0" y="0" width="104.8203125" height="178"/><text class="er entityLabel" id="entity-user" x="0" y="0" dominant-baseline="middle" text-anchor="middle" style="font-family: &quot;trebuchet ms&quot;, verdana, arial, sans-serif;; font-size: 12px" transform="translate(52.41015625,12)">user</text><rect class="er attributeBoxOdd" fill="honeydew" fill-opacity="100%" stroke="gray" x="0" y="24" width="36.5234375" height="22"/><text class="er entityLabel" id="entity-user-attr-1-type" x="0" y="0" dominant-baseline="middle" text-anchor="left" style="font-family: &quot;trebuchet ms&quot;, verdana, arial, sans-serif;; font-size: 10.2px" transform="translate(5,35)">Int</text><rect class="er attributeBoxOdd" fill="honeydew" fill-opacity="100%" stroke="gray" x="036.5234375" y="24" width="68.296875" height="22"/><text class="er entityLabel" id="entity-user-attr-1-name" x="0" y="0" dominant-baseline="middle" text-anchor="left" style="font-family: &quot;trebuchet ms&quot;, verdana, arial, sans-serif;; font-size: 10.2px" transform="translate(41.5234375,35)">no</text><rect class="er attributeBoxEven" fill="honeydew" fill-opacity="100%" stroke="gray" x="0" y="46" width="36.5234375" height="22"/><text class="er entityLabel" id="entity-user-attr-2-type" x="0" y="0" dominant-baseline="middle" text-anchor="left" style="font-family: &quot;trebuchet ms&quot;, verdana, arial, sans-serif;; font-size: 10.2px" transform="translate(5,57)">String</text><rect class="er attributeBoxEven" fill="honeydew" fill-opacity="100%" stroke="gray" x="036.5234375" y="46" width="68.296875" height="22"/><text class="er entityLabel" id="entity-user-attr-2-name" x="0" y="0" dominant-baseline="middle" text-anchor="left" style="font-family: &quot;trebuchet ms&quot;, verdana, arial, sans-serif;; font-size: 10.2px" transform="translate(41.5234375,57)">id</text><rect class="er attributeBoxOdd" fill="honeydew" fill-opacity="100%" stroke="gray" x="0" y="68" width="36.5234375" height="22"/><text class="er entityLabel" id="entity-user-attr-3-type" x="0" y="0" dominant-baseline="middle" text-anchor="left" style="font-family: &quot;trebuchet ms&quot;, verdana, arial, sans-serif;; font-size: 10.2px" transform="translate(5,79)">String</text><rect class="er attributeBoxOdd" fill="honeydew" fill-opacity="100%" stroke="gray" x="036.5234375" y="68" width="68.296875" height="22"/><text class="er entityLabel" id="entity-user-attr-3-name" x="0" y="0" dominant-baseline="middle" text-anchor="left" style="font-family: &quot;trebuchet ms&quot;, verdana, arial, sans-serif;; font-size: 10.2px" transform="translate(41.5234375,79)">pw</text><rect class="er attributeBoxEven" fill="honeydew" fill-opacity="100%" stroke="gray" x="0" y="90" width="36.5234375" height="22"/><text class="er entityLabel" id="entity-user-attr-4-type" x="0" y="0" dominant-baseline="middle" text-anchor="left" style="font-family: &quot;trebuchet ms&quot;, verdana, arial, sans-serif;; font-size: 10.2px" transform="translate(5,101)">String</text><rect class="er attributeBoxEven" fill="honeydew" fill-opacity="100%" stroke="gray" x="036.5234375" y="90" width="68.296875" height="22"/><text class="er entityLabel" id="entity-user-attr-4-name" x="0" y="0" dominant-baseline="middle" text-anchor="left" style="font-family: &quot;trebuchet ms&quot;, verdana, arial, sans-serif;; font-size: 10.2px" transform="translate(41.5234375,101)">name</text><rect class="er attributeBoxOdd" fill="honeydew" fill-opacity="100%" stroke="gray" x="0" y="112" width="36.5234375" height="22"/><text class="er entityLabel" id="entity-user-attr-5-type" x="0" y="0" dominant-baseline="middle" text-anchor="left" style="font-family: &quot;trebuchet ms&quot;, verdana, arial, sans-serif;; font-size: 10.2px" transform="translate(5,123)">String</text><rect class="er attributeBoxOdd" fill="honeydew" fill-opacity="100%" stroke="gray" x="036.5234375" y="112" width="68.296875" height="22"/><text class="er entityLabel" id="entity-user-attr-5-name" x="0" y="0" dominant-baseline="middle" text-anchor="left" style="font-family: &quot;trebuchet ms&quot;, verdana, arial, sans-serif;; font-size: 10.2px" transform="translate(41.5234375,123)">phone</text><rect class="er attributeBoxEven" fill="honeydew" fill-opacity="100%" stroke="gray" x="0" y="134" width="36.5234375" height="22"/><text class="er entityLabel" id="entity-user-attr-6-type" x="0" y="0" dominant-baseline="middle" text-anchor="left" style="font-family: &quot;trebuchet ms&quot;, verdana, arial, sans-serif;; font-size: 10.2px" transform="translate(5,145)">Int</text><rect class="er attributeBoxEven" fill="honeydew" fill-opacity="100%" stroke="gray" x="036.5234375" y="134" width="68.296875" height="22"/><text class="er entityLabel" id="entity-user-attr-6-name" x="0" y="0" dominant-baseline="middle" text-anchor="left" style="font-family: &quot;trebuchet ms&quot;, verdana, arial, sans-serif;; font-size: 10.2px" transform="translate(41.5234375,145)">masterCount</text><rect class="er attributeBoxOdd" fill="honeydew" fill-opacity="100%" stroke="gray" x="0" y="156" width="36.5234375" height="22"/><text class="er entityLabel" id="entity-user-attr-7-type" x="0" y="0" dominant-baseline="middle" text-anchor="left" style="font-family: &quot;trebuchet ms&quot;, verdana, arial, sans-serif;; font-size: 10.2px" transform="translate(5,167)">String</text><rect class="er attributeBoxOdd" fill="honeydew" fill-opacity="100%" stroke="gray" x="036.5234375" y="156" width="68.296875" height="22"/><text class="er entityLabel" id="entity-user-attr-7-name" x="0" y="0" dominant-baseline="middle" text-anchor="left" style="font-family: &quot;trebuchet ms&quot;, verdana, arial, sans-serif;; font-size: 10.2px" transform="translate(41.5234375,167)">payment</text></g><g id="team" transform="translate(196.52734375,356 )"><rect class="er entityBox" fill="honeydew" fill-opacity="100%" stroke="gray" x="0" y="0" width="100" height="90"/><text class="er entityLabel" id="entity-team" x="0" y="0" dominant-baseline="middle" text-anchor="middle" style="font-family: &quot;trebuchet ms&quot;, verdana, arial, sans-serif;; font-size: 12px" transform="translate(50,12)">team</text><rect class="er attributeBoxOdd" fill="honeydew" fill-opacity="100%" stroke="gray" x="0" y="24" width="50.77734375" height="22"/><text class="er entityLabel" id="entity-team-attr-1-type" x="0" y="0" dominant-baseline="middle" text-anchor="left" style="font-family: &quot;trebuchet ms&quot;, verdana, arial, sans-serif;; font-size: 10.2px" transform="translate(5,35)">Int</text><rect class="er attributeBoxOdd" fill="honeydew" fill-opacity="100%" stroke="gray" x="050.77734375" y="24" width="49.22265625" height="22"/><text class="er entityLabel" id="entity-team-attr-1-name" x="0" y="0" dominant-baseline="middle" text-anchor="left" style="font-family: &quot;trebuchet ms&quot;, verdana, arial, sans-serif;; font-size: 10.2px" transform="translate(55.77734375,35)">no</text><rect class="er attributeBoxEven" fill="honeydew" fill-opacity="100%" stroke="gray" x="0" y="46" width="50.77734375" height="22"/><text class="er entityLabel" id="entity-team-attr-2-type" x="0" y="0" dominant-baseline="middle" text-anchor="left" style="font-family: &quot;trebuchet ms&quot;, verdana, arial, sans-serif;; font-size: 10.2px" transform="translate(5,57)">String</text><rect class="er attributeBoxEven" fill="honeydew" fill-opacity="100%" stroke="gray" x="050.77734375" y="46" width="49.22265625" height="22"/><text class="er entityLabel" id="entity-team-attr-2-name" x="0" y="0" dominant-baseline="middle" text-anchor="left" style="font-family: &quot;trebuchet ms&quot;, verdana, arial, sans-serif;; font-size: 10.2px" transform="translate(55.77734375,57)">name</text><rect class="er attributeBoxOdd" fill="honeydew" fill-opacity="100%" stroke="gray" x="0" y="68" width="50.77734375" height="22"/><text class="er entityLabel" id="entity-team-attr-3-type" x="0" y="0" dominant-baseline="middle" text-anchor="left" style="font-family: &quot;trebuchet ms&quot;, verdana, arial, sans-serif;; font-size: 10.2px" transform="translate(5,79)">String</text><rect class="er attributeBoxOdd" fill="honeydew" fill-opacity="100%" stroke="gray" x="050.77734375" y="68" width="49.22265625" height="22"/><text class="er entityLabel" id="entity-team-attr-3-name" x="0" y="0" dominant-baseline="middle" text-anchor="left" style="font-family: &quot;trebuchet ms&quot;, verdana, arial, sans-serif;; font-size: 10.2px" transform="translate(55.77734375,79)">code</text></g><g id="joinTeam" transform="translate(20,188 )"><rect class="er entityBox" fill="honeydew" fill-opacity="100%" stroke="gray" x="0" y="0" width="100" height="46"/><text class="er entityLabel" id="entity-joinTeam" x="0" y="0" dominant-baseline="middle" text-anchor="middle" style="font-family: &quot;trebuchet ms&quot;, verdana, arial, sans-serif;; font-size: 12px" transform="translate(50,12)">joinTeam</text><rect class="er attributeBoxOdd" fill="honeydew" fill-opacity="100%" stroke="gray" x="0" y="24" width="50.70703125" height="22"/><text class="er entityLabel" id="entity-joinTeam-attr-1-type" x="0" y="0" dominant-baseline="middle" text-anchor="left" style="font-family: &quot;trebuchet ms&quot;, verdana, arial, sans-serif;; font-size: 10.2px" transform="translate(5,35)">Int</text><rect class="er attributeBoxOdd" fill="honeydew" fill-opacity="100%" stroke="gray" x="050.70703125" y="24" width="49.29296875" height="22"/><text class="er entityLabel" id="entity-joinTeam-attr-1-name" x="0" y="0" dominant-baseline="middle" text-anchor="left" style="font-family: &quot;trebuchet ms&quot;, verdana, arial, sans-serif;; font-size: 10.2px" transform="translate(55.70703125,35)">no</text></g><g id="todo" transform="translate(243.47265625,166 )"><rect class="er entityBox" fill="honeydew" fill-opacity="100%" stroke="gray" x="0" y="0" width="106.109375" height="90"/><text class="er entityLabel" id="entity-todo" x="0" y="0" dominant-baseline="middle" text-anchor="middle" style="font-family: &quot;trebuchet ms&quot;, verdana, arial, sans-serif;; font-size: 12px" transform="translate(53.0546875,12)">todo</text><rect class="er attributeBoxOdd" fill="honeydew" fill-opacity="100%" stroke="gray" x="0" y="24" width="53.6640625" height="22"/><text class="er entityLabel" id="entity-todo-attr-1-type" x="0" y="0" dominant-baseline="middle" text-anchor="left" style="font-family: &quot;trebuchet ms&quot;, verdana, arial, sans-serif;; font-size: 10.2px" transform="translate(5,35)">String</text><rect class="er attributeBoxOdd" fill="honeydew" fill-opacity="100%" stroke="gray" x="053.6640625" y="24" width="52.4453125" height="22"/><text class="er entityLabel" id="entity-todo-attr-1-name" x="0" y="0" dominant-baseline="middle" text-anchor="left" style="font-family: &quot;trebuchet ms&quot;, verdana, arial, sans-serif;; font-size: 10.2px" transform="translate(58.6640625,35)">todocode</text><rect class="er attributeBoxEven" fill="honeydew" fill-opacity="100%" stroke="gray" x="0" y="46" width="53.6640625" height="22"/><text class="er entityLabel" id="entity-todo-attr-2-type" x="0" y="0" dominant-baseline="middle" text-anchor="left" style="font-family: &quot;trebuchet ms&quot;, verdana, arial, sans-serif;; font-size: 10.2px" transform="translate(5,57)">String</text><rect class="er attributeBoxEven" fill="honeydew" fill-opacity="100%" stroke="gray" x="053.6640625" y="46" width="52.4453125" height="22"/><text class="er entityLabel" id="entity-todo-attr-2-name" x="0" y="0" dominant-baseline="middle" text-anchor="left" style="font-family: &quot;trebuchet ms&quot;, verdana, arial, sans-serif;; font-size: 10.2px" transform="translate(58.6640625,57)">title</text><rect class="er attributeBoxOdd" fill="honeydew" fill-opacity="100%" stroke="gray" x="0" y="68" width="53.6640625" height="22"/><text class="er entityLabel" id="entity-todo-attr-3-type" x="0" y="0" dominant-baseline="middle" text-anchor="left" style="font-family: &quot;trebuchet ms&quot;, verdana, arial, sans-serif;; font-size: 10.2px" transform="translate(5,79)">DateTime</text><rect class="er attributeBoxOdd" fill="honeydew" fill-opacity="100%" stroke="gray" x="053.6640625" y="68" width="52.4453125" height="22"/><text class="er entityLabel" id="entity-todo-attr-3-name" x="0" y="0" dominant-baseline="middle" text-anchor="left" style="font-family: &quot;trebuchet ms&quot;, verdana, arial, sans-serif;; font-size: 10.2px" transform="translate(58.6640625,79)">date</text></g><g id="clearTodo" transform="translate(323.0546875,20 )"><rect class="er entityBox" fill="honeydew" fill-opacity="100%" stroke="gray" x="0" y="0" width="100" height="46"/><text class="er entityLabel" id="entity-clearTodo" x="0" y="0" dominant-baseline="middle" text-anchor="middle" style="font-family: &quot;trebuchet ms&quot;, verdana, arial, sans-serif;; font-size: 12px" transform="translate(50,12)">clearTodo</text><rect class="er attributeBoxOdd" fill="honeydew" fill-opacity="100%" stroke="gray" x="0" y="24" width="43.52734375" height="22"/><text class="er entityLabel" id="entity-clearTodo-attr-1-type" x="0" y="0" dominant-baseline="middle" text-anchor="left" style="font-family: &quot;trebuchet ms&quot;, verdana, arial, sans-serif;; font-size: 10.2px" transform="translate(5,35)">String</text><rect class="er attributeBoxOdd" fill="honeydew" fill-opacity="100%" stroke="gray" x="043.52734375" y="24" width="56.47265625" height="22"/><text class="er entityLabel" id="entity-clearTodo-attr-1-name" x="0" y="0" dominant-baseline="middle" text-anchor="left" style="font-family: &quot;trebuchet ms&quot;, verdana, arial, sans-serif;; font-size: 10.2px" transform="translate(48.52734375,35)">joincode</text></g><rect class="er relationshipLabelBox" x="235.21484375" y="489" width="22.625" height="14" fill="white" fill-opacity="85%"/><text class="er relationshipLabel" id="rel1" x="246.52734375" y="496" text-anchor="middle" dominant-baseline="middle" style="font-family: &quot;trebuchet ms&quot;, verdana, arial, sans-serif;; font-size: 12px">user</text><rect class="er relationshipLabelBox" x="14.012950897216797" y="448.34716796875" width="22.625" height="14" fill="white" fill-opacity="85%"/><text class="er relationshipLabel" id="rel2" x="25.325450897216797" y="455.34716796875" text-anchor="middle" dominant-baseline="middle" style="font-family: &quot;trebuchet ms&quot;, verdana, arial, sans-serif;; font-size: 12px">user</text><rect class="er relationshipLabelBox" x="126.52117919921875" y="290.7195129394531" width="27.5703125" height="14" fill="white" fill-opacity="85%"/><text class="er relationshipLabel" id="rel3" x="140.30633544921875" y="297.7195129394531" text-anchor="middle" dominant-baseline="middle" style="font-family: &quot;trebuchet ms&quot;, verdana, arial, sans-serif;; font-size: 12px">team</text><rect class="er relationshipLabelBox" x="277.7781982421875" y="301.108642578125" width="27.5703125" height="14" fill="white" fill-opacity="85%"/><text class="er relationshipLabel" id="rel4" x="291.5633544921875" y="308.108642578125" text-anchor="middle" dominant-baseline="middle" style="font-family: &quot;trebuchet ms&quot;, verdana, arial, sans-serif;; font-size: 12px">team</text><rect class="er relationshipLabelBox" x="296.9867858886719" y="102.40139770507812" width="24.328125" height="14" fill="white" fill-opacity="85%"/><text class="er relationshipLabel" id="rel5" x="309.1508483886719" y="109.40139770507812" text-anchor="middle" dominant-baseline="middle" style="font-family: &quot;trebuchet ms&quot;, verdana, arial, sans-serif;; font-size: 12px">todo</text><rect class="er relationshipLabelBox" x="438.26953125" y="350.3253173828125" width="22.625" height="14" fill="white" fill-opacity="85%"/><text class="er relationshipLabel" id="rel6" x="449.58203125" y="357.3253173828125" text-anchor="middle" dominant-baseline="middle" style="font-family: &quot;trebuchet ms&quot;, verdana, arial, sans-serif;; font-size: 12px">user</text></svg>